<svg viewBox="0 0 360 23" fill="none">
<path d="M5.05737 11.8052C15.8539 11.8052 26.6505 11.8052 37.447 11.8052C46.2264 11.8052 54.6199 14.5048 63.1682 14.6631C79.0741 14.9577 94.9942 13.8239 110.8 15.8275C123.986 17.499 140.758 18.3589 153.457 14.4514C168.671 9.77022 182.26 6.74168 198.442 6.14234C233.438 4.84623 268.69 6.08942 303.709 6.08942C314.311 6.08942 324.914 6.08942 335.516 6.08942C338.642 6.08942 341.221 7.8294 344.196 7.99469C347.577 8.18255 351.033 8.94733 354.675 8.94733" stroke="url(#paint0_linear_156_9)" stroke-width="10" stroke-linecap="round"/>
<defs>
<linearGradient id="paint0_linear_156_9" x1="-22" y1="16.9998" x2="422" y2="5.99987" gradientUnits="userSpaceOnUse">
<stop stop-color="#04FED1"/>
<stop offset="1" stop-color="#1400FF"/>
</linearGradient>
</defs>
</svg>
